HIERARCHY
ROOT Hips
{
	OFFSET 0.00000 0.00000 0.00000
	CHANNELS 6 Xposition Yposition Zposition Yrotation Zrotation Xrotation 
	JOINT Lumbar
	{
		OFFSET 0 0 0
		CHANNELS 3 Zrotation Xrotation Yrotation
		JOINT Neck
		{
			OFFSET 0.00 0.2701 0.00
			CHANNELS 3 Zrotation Xrotation Yrotation
			End Site
			{
				OFFSET 0.00 0.1379 0.00
			}
		}
		JOINT RightShoulder
		{
			OFFSET 0.0119 0.2289 0.1181
			CHANNELS 3 Zrotation Xrotation Yrotation
			JOINT RightElbow
			{
				OFFSET 0.00 -0.1475 0.00
				CHANNELS 2 Zrotation Yrotation
				JOINT RightWrist
				{
					OFFSET 0.00 -0.1605 0.00
					CHANNELS 2 Zrotation Xrotation
					End Site
					{
						OFFSET 0.0040 -0.1068 0.0006
					}
				}
			}
		}
		JOINT LeftShoulder
		{
			OFFSET 0.0119 0.2289 -0.1181
			CHANNELS 3 Zrotation Xrotation Yrotation
			JOINT LeftElbow
			{
				OFFSET 0.00 -0.1475 0.00
				CHANNELS 2 Zrotation Yrotation
				JOINT LeftWrist
				{
					OFFSET 0.00 -0.1605 0.00
					CHANNELS 2 Zrotation Xrotation
					End Site
					{
						OFFSET 0.0040 -0.1068 -0.0006
					}
				}
			}
		}
	}
	JOINT RightHip
	{
		OFFSET 0.0316 -0.0424 0.0458
		CHANNELS 3 Zrotation Xrotation Yrotation
		JOINT RightKnee
		{
			OFFSET 0.00 -0.2438 0.00
			CHANNELS 1 Zrotation
			JOINT RightAnkle
			{
				OFFSET 0.00 -0.2449 0.00
				CHANNELS 3 Zrotation Xrotation Yrotation
				End Site
				{
					OFFSET 0.1237 -0.0542 0.0051
				}
			}
		}
	}
	JOINT LeftHip
	{
		OFFSET 0.0316 -0.0424 -0.0458
		CHANNELS 3 Zrotation Xrotation Yrotation
		JOINT LeftKnee
		{
			OFFSET 0.00 -0.2438 0.00
			CHANNELS 1 Zrotation
			JOINT LeftAnkle
			{
				OFFSET 0.00 -0.2449 0.00
				CHANNELS 3 Zrotation Xrotation Yrotation
				End Site
				{
					OFFSET 0.1237 -0.0542 -0.0051
				}
			}
		}
	}
}
MOTION
Frames: 27
Frame Time: 0.02
9e-05 4e-05 9e-05 -178.17942 -34.17326 2.14158 46.7122 -1.11747 -3.98044 -15.47469 5.91548 -1.22991 -19.62286 -4.06387 -24.09319 19.13375 100.88331 12.87378 1.79425 -22.97485 2.89566 27.77936 27.70283 -130.31931 24.23983 -6.11289 39.60608 -4.12557 -3.06953 -21.67238 -7.99866 -4.36995 -4.44584 44.77504 5.25165 1.1975 -25.87146 -7.59075 3.02665 3.75561
6e-05 1e-05 0 -178.1779 -34.17122 2.14255 46.68579 -1.11684 -3.97555 -15.48135 5.91675 -1.23012 -19.59559 -4.05767 -24.05319 19.13457 100.89661 12.86056 1.79778 -23.011 3.09001 27.06824 27.67967 -128.99433 23.92442 -5.84852 39.59537 -4.24084 -3.70833 -21.69075 -7.9383 -4.33211 -4.42233 44.77897 5.32517 1.48032 -25.89137 -7.5763 2.99691 3.74029
3e-05 -1e-05 -8e-05 -178.17636 -34.16918 2.14353 46.65941 -1.11621 -3.97068 -15.48801 5.91802 -1.23034 -19.56839 -4.0515 -24.01325 19.13537 100.90987 12.84738 1.8013 -23.047 3.28381 26.35929 27.65648 -127.67342 23.60998 -5.58499 39.58468 -4.35589 -4.34588 -21.70914 -7.87806 -4.29435 -4.39887 44.78287 5.39866 1.76303 -25.91124 -7.56187 2.9672 3.72498
1e-05 -3e-05 -0.00017 -178.17484 -34.16715 2.1445 46.63308 -1.11557 -3.96581 -15.49465 5.91928 -1.23056 -19.54119 -4.04532 -23.97336 19.13619 100.92312 12.8342 1.80481 -23.08304 3.47757 25.65034 27.63338 -126.35251 23.29553 -5.32141 39.574 -4.47083 -4.98286 -21.72746 -7.81788 -4.25662 -4.37543 44.78678 5.47199 2.04513 -25.93109 -7.54746 2.93755 3.70971
-2e-05 -5e-05 -0.00026 -178.17336 -34.16513 2.14546 46.60672 -1.11493 -3.96092 -15.50127 5.92052 -1.23078 -19.51393 -4.03909 -23.93344 19.13705 100.9364 12.821 1.80832 -23.11925 3.67185 24.93926 27.61032 -125.02755 22.98014 -5.05705 39.56332 -4.58593 -5.62075 -21.74576 -7.7576 -4.21884 -4.35196 44.79075 5.54529 2.32696 -25.95098 -7.53304 2.90789 3.69445
-5e-05 -7e-05 -0.00034 -178.17167 -34.16306 2.14646 46.5803 -1.11433 -3.95609 -15.50801 5.92188 -1.231 -19.48687 -4.03304 -23.89345 19.13769 100.94962 12.80785 1.81186 -23.15479 3.86464 24.23484 27.58687 -123.71523 22.66771 -4.79533 39.55262 -4.70086 -6.25748 -21.76433 -7.69746 -4.18111 -4.32852 44.79451 5.61916 2.61148 -25.97082 -7.51858 2.87809 3.67905
-8e-05 -0.0001 -0.00043 -178.17042 -34.16107 2.14738 46.55404 -1.11364 -3.95114 -15.51452 5.92299 -1.23121 -19.45942 -4.02664 -23.85364 19.13879 100.96296 12.79461 1.81535 -23.19165 4.06021 23.51775 27.56425 -122.37897 22.34966 -4.52842 39.54196 -4.81603 -6.89601 -21.78231 -7.63709 -4.14332 -4.30505 44.79866 5.69182 2.89045 -25.99071 -7.50422 2.84859 3.66393
-0.0001 -0.00012 -0.00052 -178.16874 -34.15903 2.14837 46.52764 -1.11304 -3.9463 -15.52122 5.92434 -1.23143 -19.43233 -4.0206 -23.81366 19.13944 100.97616 12.78145 1.81888 -23.22727 4.25324 22.81244 27.54085 -121.0647 22.0368 -4.2666 39.53129 -4.93093 -7.5326 -21.80085 -7.57695 -4.10559 -4.28161 44.80249 5.76554 3.17422 -26.01058 -7.48977 2.81883 3.64857
-0.00013 -0.00014 -0.0006 -178.1666 -34.15683 2.14946 46.50102 -1.11255 -3.94161 -15.52822 5.92596 -1.23166 -19.40569 -4.01485 -23.77349 19.13966 100.9893 12.76839 1.82244 -23.26149 4.44313 22.12084 27.5165 -119.7771 21.73013 -4.00966 39.52046 -5.04579 -8.16832 -21.82003 -7.51701 -4.06786 -4.25816 44.80577 5.84087 3.46537 -26.03036 -7.47519 2.78866 3.63285
-0.00016 -0.00016 -0.00069 -178.16732 -34.15528 2.15001 46.4755 -1.11141 -3.93609 -15.53374 5.92594 -1.23183 -19.37647 -4.00696 -23.73446 19.1427 101.00316 12.75478 1.82577 -23.3041 4.65101 21.34825 27.49766 -118.33536 21.38735 -3.72062 39.51011 -5.16176 -8.81359 -21.83542 -7.45565 -4.02994 -4.2346 44.81171 5.90788 3.71864 -26.05047 -7.46129 2.76059 3.619
-0.00019 -0.00019 -0.00077 -178.1619 -34.15254 2.1517 46.44777 -1.11164 -3.93231 -15.54221 5.92943 -1.23213 -19.35267 -4.00388 -23.69299 19.13956 101.01525 12.7423 1.82965 -23.32882 4.82095 20.74795 27.46715 -117.2194 21.12111 -3.50191 39.49904 -5.27478 -9.43568 -21.85886 -7.3975 -3.99257 -4.2114 44.81238 5.99178 4.04879 -26.06999 -7.44602 2.72828 3.60135
-0.00025 -0.00022 -0.00086 -178.13996 -34.14508 2.1566 46.41297 -1.11562 -3.93359 -15.56003 5.94244 -1.23278 -19.34402 -4.01194 -23.64506 19.12113 101.02398 12.73307 1.83472 -23.30549 4.88684 20.60911 27.40499 -116.99557 21.06201 -3.45413 39.4838 -5.38452 -10.01904 -21.90433 -7.34641 -3.95533 -4.18821 44.79612 6.12808 4.61707 -26.08695 -7.42624 2.68261 3.57192
-0.00033 -0.00026 -0.00094 -178.11164 -34.13685 2.16261 46.37611 -1.12098 -3.93668 -15.58044 5.95902 -1.23357 -19.3406 -4.02527 -23.59472 19.09617 101.03039 12.72491 1.84048 -23.26411 4.91541 20.64247 27.33126 -117.09532 21.079 -3.47936 39.46852 -5.49037 -10.57461 -21.958 -7.29888 -3.91892 -4.16557 44.77535 6.28022 5.25731 -26.10353 -7.40522 2.63304 3.53895
-0.0004 -0.00031 -0.00102 -178.0862 -34.12967 2.1681 46.34086 -1.12572 -3.93864 -15.59909 5.97401 -1.23429 -19.33485 -4.03748 -23.5452 19.07312 101.03724 12.71618 1.84604 -23.23017 4.96003 20.60812 27.26233 -117.05317 21.06472 -3.48771 39.45433 -5.59488 -11.12653 -22.00783 -7.25082 -3.88302 -4.14329 44.75779 6.42115 5.84714 -26.12079 -7.38524 2.58639 3.50849
-0.00047 -0.00034 -0.00111 -178.06142 -34.11881 2.17379 46.30284 -1.13042 -3.94147 -15.62088 5.98882 -1.23502 -19.32965 -4.04412 -23.49647 19.05456 101.04781 12.70789 1.85082 -23.19896 5.00523 20.5415 27.19447 -117.00596 21.04197 -3.43434 39.43446 -5.71257 -11.74673 -22.05771 -7.19811 -3.84333 -4.11839 44.73392 6.57902 6.51269 -26.13567 -7.36324 2.53482 3.47419
-0.00054 -0.00039 -0.00119 -178.03304 -34.11635 2.17915 46.27 -1.13555 -3.94347 -15.63588 6.00493 -1.23578 -19.32362 -4.06388 -23.44599 19.02506 101.04868 12.69881 1.85777 -23.15834 5.04437 20.56796 27.1227 -117.02589 21.04818 -3.51813 39.42786 -5.80177 -12.21864 -22.10996 -7.156 -3.81181 -4.09912 44.72387 6.70537 7.03657 -26.15575 -7.34518 2.49263 3.44707
-0.00065 -0.00046 -0.00127 -178.00215 -34.12957 2.18474 46.25224 -1.14128 -3.93782 -15.63836 6.02299 -1.23657 -19.32144 -4.11615 -23.38663 18.96779 101.0351 12.68841 1.86716 -23.09088 5.04134 20.93953 27.03445 -117.32933 21.17534 -4.03923 39.44615 -5.81445 -12.2841 -22.16315 -7.1415 -3.80195 -4.09494 44.73911 6.7409 7.16038 -26.18813 -7.33793 2.4768 3.44042
-0.00077 -0.00053 -0.00135 -177.96656 -34.15284 2.18967 46.23926 -1.14743 -3.93214 -15.63236 6.04239 -1.23741 -19.31667 -4.18191 -23.32601 18.89988 101.00956 12.67701 1.87923 -23.01503 5.03966 21.37648 26.94467 -117.66048 21.31938 -4.68298 39.48051 -5.7985 -12.20262 -22.21965 -7.13763 -3.80039 -4.09644 44.77161 6.7443 7.13778 -26.22661 -7.33477 2.47058 3.44112
-0.00086 -0.00061 -0.00143 -177.9295 -34.17639 2.19405 46.22446 -1.15358 -3.92976 -15.62607 6.06166 -1.23823 -19.30849 -4.24301 -23.26958 18.83589 100.98183 12.66524 1.89241 -22.94714 5.06045 21.69548 26.86063 -117.85685 21.41468 -5.21863 39.51455 -5.79471 -12.19013 -22.27635 -7.12944 -3.79554 -4.09558 44.80459 6.76214 7.17607 -26.26316 -7.32999 2.46036 3.43861
-0.00105 -0.00067 -0.00149 -177.90825 -34.17887 2.20223 46.2099 -1.15906 -3.91379 -15.63845 6.07901 -1.23897 -19.32068 -4.29796 -23.19964 18.7743 100.98646 12.65678 1.89619 -22.86326 4.98377 22.38473 26.75316 -118.56184 21.67985 -5.97203 39.51694 -5.79382 -12.16481 -22.324 -7.11939 -3.78882 -4.09388 44.79982 6.78056 7.23943 -26.29431 -7.32412 2.44869 3.43555
-0.00103 -0.00076 -0.0016 -177.85203 -34.22835 2.20209 46.19375 -1.16589 -3.92582 -15.60851 6.10067 -1.23999 -19.28873 -4.36903 -23.15525 18.70684 100.92058 12.64144 1.91968 -22.80824 5.10931 22.32648 26.69646 -118.23307 21.60199 -6.3074 39.59177 -5.78082 -12.13484 -22.39387 -7.11549 -3.78778 -4.09516 44.88094 6.79075 7.21647 -26.34047 -7.32156 2.44208 3.43527
-0.00056 -0.00094 -0.00181 -177.70894 -34.39885 2.18108 46.19117 -1.17757 -4.01721 -15.4759 6.13328 -1.24084 -19.14419 -4.47996 -23.20114 18.6123 100.66521 12.60478 2.00097 -22.85753 5.80708 20.09786 26.76069 -114.8396 20.50472 -5.39444 39.83972 -5.73524 -12.09914 -22.50151 -7.12785 -3.8021 -4.10422 45.16856 6.77907 6.97612 -26.40721 -7.32673 2.44976 3.44224
0.00013 -0.00115 -0.00207 -177.52915 -34.61729 2.15135 46.18309 -1.19039 -4.13621 -15.29898 6.17015 -1.24213 -18.95362 -4.60698 -23.26879 18.51476 100.33878 12.56158 2.10119 -22.93158 6.70592 17.13091 26.87903 -110.44004 19.07339 -4.06781 40.16425 -5.67934 -12.068 -22.63584 -7.14577 -3.82164 -4.11593 45.54696 6.7614 6.65591 -26.49278 -7.33514 2.46175 3.45153
0.00078 -0.00136 -0.00232 -177.36075 -34.81818 2.1243 46.16523 -1.20187 -4.24149 -15.13404 6.20562 -1.24383 -18.77853 -4.72736 -23.31421 18.42748 100.04348 12.52322 2.19013 -22.98019 7.50354 14.56005 26.98654 -106.63421 17.83995 -2.97255 40.46889 -5.63257 -12.05555 -22.77254 -7.15976 -3.83753 -4.1257 45.90123 6.75109 6.38216 -26.58203 -7.34234 2.47002 3.45888
0.00119 -0.00151 -0.00254 -177.21497 -35.00234 2.10261 46.20008 -1.21674 -4.35247 -15.00211 6.23939 -1.243 -18.6266 -4.84493 -23.41322 18.3023 99.75301 12.47744 2.29067 -23.09027 8.34247 11.7351 27.03908 -102.25779 16.41499 -1.6998 40.71142 -5.56722 -11.95587 -22.84718 -7.1796 -3.85866 -4.13854 46.18397 6.72035 6.0622 -26.61852 -7.34864 2.48597 3.47019
0.00215 -0.00179 -0.00282 -177.01284 -35.23155 2.06776 46.12287 -1.22495 -4.45716 -14.79241 6.27702 -1.2475 -18.41518 -4.97255 -23.40386 18.25544 99.43533 12.44493 2.37125 -23.07594 9.14344 9.26426 27.21496 -98.82481 15.3064 -0.69528 41.10092 -5.53702 -12.03389 -23.05859 -7.189 -3.87054 -4.14585 46.63682 6.73082 5.81919 -26.77092 -7.35745 2.48697 3.47376
0.0046 -0.00239 -0.00322 -176.66917 -35.58235 1.99795 45.74544 -1.21347 -4.54593 -14.36736 6.32968 -1.26705 -18.05334 -5.11938 -23.10677 18.42639 99.06359 12.45614 2.39427 -22.73252 9.78746 7.94255 27.75288 -98.29227 15.17903 -0.54604 41.88063 -5.61984 -12.66475 -23.63169 -7.1631 -3.85084 -4.13459 47.53901 6.85985 5.8283 -27.22541 -7.373 2.44435 3.45475
